<?xml version="1.0" encoding="UTF-8"?>
<svg xmlns="http://www.w3.org/2000/svg" version="1.1" viewBox="0 0 900 600">
  <defs>
    <style>
      .cls-1 {
        fill: #ae9159;
      }
    </style>
  </defs>
  <!-- Generator: Adobe Illustrator 28.6.0, SVG Export Plug-In . SVG Version: 1.2.0 Build 709)  -->
  <g>
    <g id="Layer_1">
      <path class="cls-1" d="M167.86,35.16h105.47V0h-140.62v140.63h35.16V35.16Z"/>
      <path class="cls-1" d="M592.08,0v35.16h105.47v105.47h35.16V0h-140.62Z"/>
      <path class="cls-1" d="M697.55,564.84h-105.47v35.16h140.62v-140.62h-35.16v105.47Z"/>
      <path class="cls-1" d="M167.86,459.38h-35.16v140.62h140.62v-35.16h-105.47v-105.47Z"/>
      <path class="cls-1" d="M204.19,70.31v175.78h175.78v-105.47h35.16v-35.16h-35.16v-35.16h-175.78ZM344.81,210.94h-105.47v-105.47h105.47v105.47Z"/>
      <path class="cls-1" d="M661.22,527.34v-175.78h-70.31v-35.16h-35.16v35.16h-105.47v35.16h35.16v35.16h-35.16v35.16h35.16v70.31h175.78ZM520.6,386.72h105.47v105.47h-105.47v-105.47Z"/>
      <path class="cls-1" d="M309.66,316.41h70.31v-35.16h-175.78v35.16h70.31v35.16h-35.16v35.16h35.16v70.31h-35.16v35.16h35.16v35.16h175.78v-35.16h-35.16v-35.16h-35.16v35.16h-70.31v-35.16h35.16v-35.16h-35.16v-105.47Z"/>
      <path class="cls-1" d="M274.5,140.63h35.16v35.16h-35.16v-35.16Z"/>
      <path class="cls-1" d="M555.75,140.63h35.16v35.16h-35.16v-35.16Z"/>
      <path class="cls-1" d="M590.91,246.09h70.31V70.31h-175.78v175.78h70.31v35.16h35.16v-35.16ZM520.6,210.94v-105.47h105.47v105.47h-105.47Z"/>
      <path class="cls-1" d="M661.22,316.41v-35.16h-70.31v35.16h70.31Z"/>
      <path class="cls-1" d="M555.75,421.88h35.16v35.16h-35.16v-35.16Z"/>
      <path class="cls-1" d="M415.13,386.72h35.16v35.16h-35.16v-35.16Z"/>
      <path class="cls-1" d="M344.81,421.88h35.16v-70.31h-35.16v70.31Z"/>
      <path class="cls-1" d="M379.97,316.41h35.16v35.16h-35.16v-35.16Z"/>
      <path class="cls-1" d="M239.35,386.72h-35.16v70.31h35.16v-70.31Z"/>
      <path class="cls-1" d="M204.19,492.19h35.16v35.16h-35.16v-35.16Z"/>
      <path class="cls-1" d="M415.13,70.31h35.16v35.16h-35.16v-35.16Z"/>
      <path class="cls-1" d="M415.13,210.94h35.16v-70.31h-35.16v70.31Z"/>
      <path class="cls-1" d="M450.28,281.25v-35.16h-35.16v70.31h140.62v-35.16h-105.47Z"/>
    </g>
  </g>
</svg>