<?xml version="1.0" encoding="UTF-8"?>
<svg xmlns="http://www.w3.org/2000/svg" version="1.1" viewBox="0 0 900 600">
  <defs>
    <style>
      .cls-1 {
        fill: #ae9159;
      }
    </style>
  </defs>
  <!-- Generator: Adobe Illustrator 28.6.0, SVG Export Plug-In . SVG Version: 1.2.0 Build 709)  -->
  <g>
    <g id="Layer_1">
      <path class="cls-1" d="M627.78,244.44c-97.78,0-177.78,80-177.78,177.78s80,177.78,177.78,177.78,177.78-80,177.78-177.78-80-177.78-177.78-177.78ZM694.44,444.44h-44.44v44.44c0,13.33-8.89,22.22-22.22,22.22s-22.22-8.89-22.22-22.22v-44.44h-44.44c-13.33,0-22.22-8.89-22.22-22.22s8.89-22.22,22.22-22.22h44.44v-44.44c0-13.33,8.89-22.22,22.22-22.22s22.22,8.89,22.22,22.22v44.44h44.44c13.33,0,22.22,8.89,22.22,22.22s-8.89,22.22-22.22,22.22Z"/>
      <path class="cls-1" d="M281.11,377.78l26.67-51.11c11.11-22.22,33.33-37.78,60-37.78h82.22c40-53.33,104.44-88.89,177.78-88.89,26.67,0,51.11,4.44,75.56,13.33-8.89-13.33-20-26.67-31.11-35.56h22.22c13.33,0,22.22-8.89,22.22-22.22s-8.89-22.22-22.22-22.22h-62.22l-26.67-66.67C587.78,26.67,547.78,0,503.33,0h-195.56c-44.44,0-84.44,26.67-102.22,66.67l-28.89,66.67h-60c-13.33,0-22.22,8.89-22.22,22.22s8.89,22.22,22.22,22.22h22.22c-26.67,20-44.44,53.33-44.44,88.89v88.89c0,20,8.89,37.78,22.22,48.89v40c0,37.78,28.89,66.67,66.67,66.67h44.44c37.78,0,66.67-28.89,66.67-66.67v-22.22h111.11c0-15.56,2.22-31.11,4.44-44.44h-128.89ZM250,311.11h-66.67c-13.33,0-22.22-8.89-22.22-22.22s8.89-22.22,22.22-22.22h66.67c13.33,0,22.22,8.89,22.22,22.22s-8.89,22.22-22.22,22.22ZM216.67,155.56l31.11-71.11c11.11-24.44,33.33-40,60-40h193.33c26.67,0,51.11,15.56,62.22,40l31.11,71.11H216.67Z"/>
    </g>
  </g>
</svg>