<?xml version="1.0" encoding="UTF-8"?>
<svg xmlns="http://www.w3.org/2000/svg" version="1.1" viewBox="0 0 900 600">
  <defs>
    <style>
      .cls-1 {
        fill: #ae9159;
      }
    </style>
  </defs>
  <!-- Generator: Adobe Illustrator 28.6.0, SVG Export Plug-In . SVG Version: 1.2.0 Build 709)  -->
  <g>
    <g id="Layer_1">
      <g id="_x33_">
        <path class="cls-1" d="M600,50c55.15,0,100,44.85,100,100v300c0,55.15-44.85,100-100,100h-300c-55.15,0-100-44.85-100-100V150c0-55.15,44.85-100,100-100h300ZM600,0h-300c-82.85,0-150,67.15-150,150v300c0,82.85,67.15,150,150,150h300c82.85,0,150-67.15,150-150V150C750,67.15,682.85,0,600,0Z"/>
      </g>
      <g id="_x32_">
        <path class="cls-1" d="M450,450c-13.8,0-25-11.18-25-25v-250c0-13.8,11.2-25,25-25s25,11.2,25,25v250c0,13.82-11.2,25-25,25Z"/>
      </g>
      <g id="_x31_">
        <path class="cls-1" d="M300,300c0-13.8,11.18-25,25-25h250c13.8,0,25,11.2,25,25s-11.2,25-25,25h-250c-13.82,0-25-11.2-25-25Z"/>
      </g>
    </g>
  </g>
</svg>