<?xml version="1.0" encoding="UTF-8"?>
<svg xmlns="http://www.w3.org/2000/svg" version="1.1" viewBox="0 0 512.1 512.1">
  <defs>
    <style>
      .cls-1 {
        fill: #fff;
      }
    </style>
  </defs>
  <!-- Generator: Adobe Illustrator 28.6.0, SVG Export Plug-In . SVG Version: 1.2.0 Build 709)  -->
  <g>
    <g id="Layer_1">
      <g>
        <path class="cls-1" d="M259.6,264.5c-7.1,3.6-15.1,5.3-23.1,5.3s-13.3-.9-19.6-3.6c-14.2-5.3-25.8-16-32-29.3-12.4-28.4,0-62.2,27.6-74.7l118.2-54.2c14.2-7.1,29.3-8,43.5-2.7,14.2,5.3,25.8,16,32,29.3,12.4,28.4,0,62.2-27.6,74.7l-7.1,3.6c8.9,9.8,16,20.4,21.3,32.9,1.8,4.4,3.6,9.8,5.3,14.2l2.7-.9c55.1-25.8,80-91.5,54.2-147.5-12.4-26.7-34.7-48-62.2-57.8-27.6-10.7-57.8-8.9-84.4,2.7l-118.2,55.1c-55.1,25.8-80,91.5-54.2,147.5,12.4,26.7,34.7,48,62.2,57.8,27.6,10.7,57.8,8.9,84.4-2.7l32-15.1c0-5.3-.9-10.7-3.6-16-4.4-9.8-12.4-16.9-21.3-20.4-9.8-2.7-20.4-2.7-30.2,1.8"/>
        <path class="cls-1" d="M252.5,248.5c13.3-6.2,29.3-7.1,42.7-1.8,14.2,5.3,25.8,16,32,29.3,12.4,28.4,0,62.2-27.6,74.7l-118.2,54.2c-7.1,3.6-15.1,5.3-23.1,5.3s-13.3-.9-19.6-3.6c-14.2-5.3-25.8-16-32-29.3-12.4-28.4,0-62.2,27.6-74.7l7.1-3.6c-8.9-9.8-16-20.4-21.3-32.9-2.7-4.4-4.4-9.8-6.2-14.2l-2.7.9c-55.1,25.8-80,91.5-54.2,147.5,12.4,26.7,34.7,48,62.2,57.8,27.6,10.7,57.8,8.9,84.4-2.7l118.2-54.2c47.1-22.2,73.8-74.7,61.3-126.2-1.8-7.1-4.4-14.2-7.1-21.3-12.4-26.7-34.7-48-62.2-57.8-27.6-10.7-57.8-8.9-84.4,2.7l-32,15.1c0,5.3.9,10.7,3.6,16,4.4,9.8,11.6,16.9,21.3,20.4,9.8,2.7,20.4,2.7,30.2-1.8"/>
      </g>
    </g>
  </g>
</svg>